name Walk8.mot
datacolumns 19
datarows 12
range 3.19800000 3.20900000
endheader

                time	   L_ground_force_vx	   L_ground_force_vy	   L_ground_force_vz	   L_ground_force_px	   L_ground_force_py	   L_ground_force_pz	   R_ground_force_vx	   R_ground_force_vy	   R_ground_force_vz	   R_ground_force_px	   R_ground_force_py	   R_ground_force_pz	   L_ground_torque_x	   L_ground_torque_y	   L_ground_torque_z	   R_ground_torque_x	   R_ground_torque_y	   R_ground_torque_z	
          3.19800000	         -0.00000000	         -0.00000000	         -0.00000000	          0.00000000	          0.00000000	          0.00000000	          8.11598060	         88.02685890	          3.09454406	          0.48055587	          0.00000000	          0.12007318	          0.00000000	         -0.00000000	          0.00000000	          0.00000000	         -2.56224832	          0.00000000	
          3.19900000	         -0.00000000	         -0.00000000	         -0.00000000	          0.00000000	          0.00000000	          0.00000000	          7.52977447	         84.09980039	          2.88873185	          0.47697146	          0.00000000	          0.11901487	          0.00000000	         -0.00000000	          0.00000000	          0.00000000	         -2.45408122	          0.00000000	
          3.20000000	         -0.00000000	         -0.00000000	         -0.00000000	          0.00000000	          0.00000000	          0.00000000	          6.96275221	         80.28114964	          2.68701638	          0.47309504	          0.00000000	          0.11788961	          0.00000000	         -0.00000000	          0.00000000	          0.00000000	         -2.34840886	          0.00000000	
          3.20100000	         -0.00000000	         -0.00000000	         -0.00000000	          0.00000000	          0.00000000	          0.00000000	          6.41508769	         76.56947285	          2.48978669	          0.46891819	          0.00000000	          0.11669556	          0.00000000	         -0.00000000	          0.00000000	          0.00000000	         -2.24524515	          0.00000000	
          3.20200000	         -0.00000000	         -0.00000000	         -0.00000000	          0.00000000	          0.00000000	          0.00000000	          5.88692043	         72.96333045	          2.29740001	          0.46443296	          0.00000000	          0.11543097	          0.00000000	         -0.00000000	          0.00000000	          0.00000000	         -2.14459854	          0.00000000	
          3.20300000	         -0.00000000	         -0.00000000	         -0.00000000	          0.00000000	          0.00000000	          0.00000000	          5.37835724	         69.46127639	          2.11018224	          0.45963203	          0.00000000	          0.11409423	          0.00000000	         -0.00000000	          0.00000000	          0.00000000	         -2.04647233	          0.00000000	
          3.20400000	         -0.00000000	         -0.00000000	         -0.00000000	          0.00000000	          0.00000000	          0.00000000	          4.88947378	         66.06185730	          1.92842865	          0.45450870	          0.00000000	          0.11268382	          0.00000000	         -0.00000000	          0.00000000	          0.00000000	         -1.95086503	          0.00000000	
          3.20500000	         -0.00000000	         -0.00000000	         -0.00000000	          0.00000000	          0.00000000	          0.00000000	          4.42031555	         62.76361259	          1.75240473	          0.44905706	          0.00000000	          0.11119841	          0.00000000	         -0.00000000	          0.00000000	          0.00000000	         -1.85777076	          0.00000000	
          3.20600000	         -0.00000000	         -0.00000000	         -0.00000000	          0.00000000	          0.00000000	          0.00000000	          3.97089833	         59.56507584	          1.58234735	          0.44327202	          0.00000000	          0.10963683	          0.00000000	         -0.00000000	          0.00000000	          0.00000000	         -1.76717978	          0.00000000	
          3.20700000	         -0.00000000	         -0.00000000	         -0.00000000	          0.00000000	          0.00000000	          0.00000000	          3.54120808	         56.46477701	          1.41846602	          0.43714942	          0.00000000	          0.10799813	          0.00000000	         -0.00000000	          0.00000000	          0.00000000	         -1.67907903	          0.00000000	
          3.20800000	         -0.00000000	         -0.00000000	         -0.00000000	          0.00000000	          0.00000000	          0.00000000	          3.13120069	         53.46124518	          1.26094417	          0.43068614	          0.00000000	          0.10628160	          0.00000000	         -0.00000000	          0.00000000	          0.00000000	         -1.59345267	          0.00000000	
          3.20900000	         -0.00000000	         -0.00000000	         -0.00000000	          0.00000000	          0.00000000	          0.00000000	          2.74080191	         50.55301078	          1.10994015	          0.42388015	          0.00000000	          0.10448679	          0.00000000	         -0.00000000	          0.00000000	          0.00000000	         -1.51028262	          0.00000000	
